<svg width="34" height="34" viewBox="0 0 34 34" fill="none" xmlns="http://www.w3.org/2000/svg">
<path d="M17 5.66675C18.5029 5.66675 19.9443 6.26377 21.007 7.32648C22.0697 8.38918 22.6667 9.83052 22.6667 11.3334C22.6667 12.8363 22.0697 14.2776 21.007 15.3404C19.9443 16.4031 18.5029 17.0001 17 17.0001C15.4971 17.0001 14.0558 16.4031 12.9931 15.3404C11.9304 14.2776 11.3334 12.8363 11.3334 11.3334C11.3334 9.83052 11.9304 8.38918 12.9931 7.32648C14.0558 6.26377 15.4971 5.66675 17 5.66675ZM17 19.8334C23.2617 19.8334 28.3334 22.3692 28.3334 25.5001V28.3334H5.66669V25.5001C5.66669 22.3692 10.7384 19.8334 17 19.8334Z" fill="#CCCCCC"/>
</svg>
