<svg width="34" height="34" viewBox="0 0 34 34" fill="none" xmlns="http://www.w3.org/2000/svg">
<path d="M6.80001 8.5001H1.32601C0.697011 8.5001 0.0680107 9.0441 0.153011 9.9281L2.80501 26.9111C2.80501 26.9111 5.95001 14.3991 6.56201 11.3901C6.74901 10.4891 7.59901 10.2001 8.22801 10.2001H17C17 10.2001 15.81 6.6641 15.691 6.2731C15.487 5.5251 15.113 5.1001 14.365 5.1001H8.73801C8.12601 5.1001 7.54801 5.4911 7.37801 6.1881C7.22501 6.8681 6.80001 8.5001 6.80001 8.5001ZM15.096 8.5001H8.29601C8.29601 8.5001 9.01001 6.8001 9.77501 6.8001H13.396C14.212 6.8001 15.096 8.5001 15.096 8.5001ZM4.53901 27.6251C4.01201 28.4241 3.24701 28.9001 2.39701 28.9001H29.138C30.056 28.9001 30.702 28.3731 30.889 27.4891C31.637 23.7661 33.745 13.1411 33.745 13.1411C33.864 12.2911 33.235 11.9001 32.691 11.9001H27.2V9.4011C27.2 9.1291 26.758 8.5001 26.078 8.5001H19.686C18.802 8.5001 18.207 9.4861 18.207 9.4861L17 11.9001H9.50301C8.95901 11.9001 8.43201 12.2231 8.33001 12.7501C8.33001 12.7501 5.62701 24.1401 5.40601 25.2111C5.28701 25.8401 5.03201 26.8941 4.53901 27.6251ZM26.146 11.9001H18.7C18.7 11.9001 19.686 10.2001 20.621 10.2001H24.514C25.721 10.2001 26.146 11.9001 26.146 11.9001Z" fill="#CCCCCC"/>
</svg>
