<svg width="34" height="34" viewBox="0 0 34 34" fill="none" xmlns="http://www.w3.org/2000/svg">
<path opacity="0.6" d="M16.5283 2.83333H11.8051C10.5526 2.83333 9.35145 3.33087 8.46582 4.2165C7.58019 5.10214 7.08264 6.30331 7.08264 7.55579C7.08264 8.80826 7.58019 10.0094 8.46582 10.8951C9.35145 11.7807 10.5526 12.2782 11.8051 12.2782H16.5283V2.83333Z" fill="#E1DDE2"/>
<path opacity="0.4" d="M16.5283 12.2782H11.8051C10.5528 12.2782 9.35184 12.7757 8.46634 13.6612C7.58084 14.5467 7.08337 15.7477 7.08337 17C7.08337 18.2523 7.58084 19.4533 8.46634 20.3388C9.35184 21.2243 10.5528 21.7217 11.8051 21.7217H16.5283V12.2782Z" fill="#E1DDE2"/>
<path d="M25.9718 17C25.9718 18.2525 25.4742 19.4537 24.5886 20.3393C23.703 21.2249 22.5018 21.7225 21.2493 21.7225C19.9968 21.7225 18.7957 21.2249 17.91 20.3393C17.0244 19.4537 16.5269 18.2525 16.5269 17C16.5269 15.7475 17.0244 14.5464 17.91 13.6607C18.7957 12.7751 19.9968 12.2775 21.2493 12.2775C22.5018 12.2775 23.703 12.7751 24.5886 13.6607C25.4742 14.5464 25.9718 15.7475 25.9718 17Z" fill="#E1DDE2"/>
<path opacity="0.2" d="M11.8051 21.7232H16.5282V26.4449C16.5279 27.3787 16.2508 28.2914 15.7319 29.0676C15.2129 29.8439 14.4755 30.4489 13.6128 30.8061C12.75 31.1633 11.8008 31.2567 10.885 31.0744C9.96916 30.8922 9.12795 30.4425 8.46769 29.7823C7.80742 29.122 7.35775 28.2808 7.17552 27.365C6.99328 26.4492 7.08667 25.4999 7.44387 24.6372C7.80107 23.7745 8.40605 23.037 9.18232 22.5181C9.95859 21.9992 10.8713 21.7234 11.8051 21.7232Z" fill="#E1DDE2"/>
<path opacity="0.8" d="M16.5269 2.83333H21.2486C22.5011 2.83333 23.7023 3.33087 24.5879 4.2165C25.4735 5.10214 25.9711 6.30331 25.9711 7.55579C25.9711 8.80826 25.4735 10.0094 24.5879 10.8951C23.7023 11.7807 22.5011 12.2782 21.2486 12.2782H16.5269V2.83333Z" fill="#E1DDE2"/>
</svg>
