<svg width="116" height="115" viewBox="0 0 116 115" fill="none" xmlns="http://www.w3.org/2000/svg">
<path d="M49.8733 6.54733C52.0296 4.39375 54.9525 3.18411 58 3.18411C61.0475 3.18411 63.9704 4.39375 66.1267 6.54733L108.953 49.3657C110.021 50.4336 110.869 51.7017 111.447 53.0974C112.026 54.4932 112.324 55.9892 112.324 57.5C112.324 59.0108 112.026 60.5068 111.447 61.9026C110.869 63.2983 110.021 64.5663 108.953 65.6343L66.1343 108.453C65.0664 109.521 63.7983 110.369 62.4026 110.947C61.0068 111.526 59.5108 111.824 58 111.824C56.4892 111.824 54.9932 111.526 53.5974 110.947C52.2017 110.369 50.9336 109.521 49.8657 108.453L7.04733 65.6343C5.97868 64.5663 5.13093 63.2983 4.55254 61.9026C3.97415 60.5068 3.67645 59.0108 3.67645 57.5C3.67645 55.9892 3.97415 54.4932 4.55254 53.0974C5.13093 51.7017 5.97868 50.4336 7.04733 49.3657L37.2463 19.1667L47.6193 29.5397C46.924 30.9951 46.5426 32.5806 46.5 34.1931C46.4574 35.8056 46.7545 37.409 47.3719 38.8991C47.9894 40.3893 48.9135 41.7329 50.0841 42.8427C51.2547 43.9525 52.6457 44.8035 54.1667 45.3407V69.6517C51.609 70.5559 49.4534 72.3353 48.0807 74.6752C46.7081 77.0151 46.2069 79.7649 46.6656 82.4386C47.1244 85.1124 48.5135 87.5378 50.5876 89.2864C52.6617 91.0349 55.2872 91.994 58 91.994C60.7128 91.994 63.3383 91.0349 65.4124 89.2864C67.4865 87.5378 68.8756 85.1124 69.3344 82.4386C69.7931 79.7649 69.2919 77.0151 67.9193 74.6752C66.5466 72.3353 64.391 70.5559 61.8333 69.6517V45.3483C62.2218 45.2103 62.5975 45.0544 62.9603 44.8807L70.627 52.5473C69.4577 54.9953 69.1915 57.7777 69.8754 60.403C70.5593 63.0282 72.1492 65.3272 74.3642 66.8935C76.5792 68.4598 79.2766 69.1927 81.9797 68.9625C84.6828 68.7323 87.2174 67.554 89.1357 65.6357C91.054 63.7174 92.2323 61.1827 92.4625 58.4797C92.6927 55.7766 91.9598 53.0792 90.3935 50.8642C88.8272 48.6492 86.5282 47.0592 83.903 46.3754C81.2778 45.6915 78.4953 45.9577 76.0473 47.127L68.3807 39.4603C69.4056 37.3144 69.74 34.9035 69.3378 32.5596C68.9357 30.2157 67.8167 28.0541 66.1352 26.3725C64.4536 24.6909 62.292 23.572 59.9481 23.1699C57.6042 22.7677 55.1933 23.1021 53.0473 24.127L42.6667 13.7387L49.8733 6.54733Z" fill="#CCCCCC"/>
</svg>
