<svg width="34" height="35" viewBox="0 0 34 35" fill="none" xmlns="http://www.w3.org/2000/svg">
<path d="M17.0014 3.33331C9.17434 3.33331 2.83475 9.6729 2.83475 17.5C2.83219 20.474 3.76657 23.3732 5.50524 25.7861C7.24392 28.1989 9.69851 30.0027 12.5205 30.9413C13.2288 31.0646 13.4952 30.6396 13.4952 30.267C13.4952 29.9312 13.4768 28.8163 13.4768 27.6291C9.91809 28.2851 8.99725 26.7621 8.71392 25.9646C8.55384 25.5566 7.86392 24.3 7.26184 23.9628C6.766 23.6979 6.05767 23.042 7.24342 23.025C8.35975 23.0066 9.15592 24.0521 9.42225 24.4771C10.6973 26.6191 12.733 26.017 13.5476 25.6458C13.6723 24.725 14.0434 24.1059 14.4514 23.7517C11.2993 23.3976 8.00559 22.175 8.00559 16.7562C8.00559 15.2149 8.55384 13.9413 9.45767 12.9496C9.316 12.5955 8.82017 11.1434 9.59934 9.19548C9.59934 9.19548 10.7851 8.8229 13.4952 10.6461C14.6486 10.3269 15.8401 10.1663 17.0368 10.1687C18.241 10.1687 19.4452 10.3274 20.5785 10.6461C23.2886 8.80448 24.4743 9.19548 24.4743 9.19548C25.2535 11.1434 24.7577 12.5955 24.616 12.9496C25.5184 13.9413 26.0681 15.1979 26.0681 16.7562C26.0681 22.1934 22.7573 23.3976 19.6053 23.7517C20.1181 24.1937 20.5615 25.0437 20.5615 26.3726C20.5615 28.2666 20.5431 29.7896 20.5431 30.2684C20.5431 30.6396 20.8094 31.0816 21.5178 30.9399C24.3291 29.9895 26.772 28.1818 28.5027 25.771C30.2335 23.3603 31.1651 20.4677 31.1667 17.5C31.1667 9.6729 24.8271 3.33331 17 3.33331" fill="#CCCCCC"/>
</svg>
