<svg width="34" height="34" viewBox="0 0 34 34" fill="none" xmlns="http://www.w3.org/2000/svg">
<path d="M18.0016 3.24852L30.7516 15.9985C31.6441 16.891 31.0123 18.4168 29.75 18.4168H28.3333V26.9168C28.3333 28.0439 27.8856 29.1249 27.0886 29.922C26.2915 30.719 25.2105 31.1668 24.0833 31.1668H22.6667V21.2501C22.6667 20.1661 22.2526 19.123 21.5089 18.3342C20.7652 17.5455 19.7482 17.0708 18.666 17.0072L18.4167 17.0001H15.5833C14.4562 17.0001 13.3752 17.4479 12.5781 18.2449C11.7811 19.0419 11.3333 20.1229 11.3333 21.2501V31.1668H9.91668C8.78951 31.1668 7.70851 30.719 6.91148 29.922C6.11445 29.1249 5.66668 28.0439 5.66668 26.9168V18.4168H4.25001C2.98918 18.4168 2.35593 16.891 3.24843 15.9985L15.9984 3.24852C16.2641 2.98294 16.6244 2.83374 17 2.83374C17.3757 2.83374 17.7359 2.98294 18.0016 3.24852ZM18.4167 19.8334C18.7924 19.8334 19.1527 19.9827 19.4184 20.2484C19.6841 20.514 19.8333 20.8744 19.8333 21.2501V31.1668H14.1667V21.2501C14.1667 20.9031 14.2941 20.5682 14.5247 20.3089C14.7553 20.0496 15.073 19.884 15.4176 19.8434L15.5833 19.8334H18.4167Z" fill="#CCCCCC"/>
</svg>
