<svg width="140" height="134" viewBox="0 0 140 134" fill="none" xmlns="http://www.w3.org/2000/svg">
<path d="M35 16.6667C30.3587 16.6667 25.9075 18.686 22.6256 22.2804C19.3437 25.8749 17.5 30.75 17.5 35.8333V112.5C17.5 117.583 19.3437 122.458 22.6256 126.053C25.9075 129.647 30.3587 131.667 35 131.667H105C109.641 131.667 114.092 129.647 117.374 126.053C120.656 122.458 122.5 117.583 122.5 112.5V35.8333C122.5 30.75 120.656 25.8749 117.374 22.2804C114.092 18.686 109.641 16.6667 105 16.6667H35ZM77.7817 100.074C81.9817 103.779 86.1739 105.606 90.3583 105.555C92.925 105.555 94.8928 105.04 96.2617 104.009C96.899 103.556 97.4176 102.929 97.7664 102.19C98.1152 101.45 98.2822 100.624 98.2508 99.7925C98.2597 98.8855 98.0867 97.9874 97.744 97.1617C97.4013 96.3359 96.8973 95.6027 96.2675 95.0136C94.8986 93.706 92.3086 92.3942 88.4975 91.078C83.9203 89.6299 80.3911 87.7558 77.91 85.4558C75.4756 83.1558 74.235 79.9465 74.1883 75.8278C74.1883 71.9391 75.7283 68.6829 78.8083 66.0592C81.8028 63.4355 85.6333 62.1236 90.3 62.1236C96.8022 62.1236 102.019 63.8571 105.951 67.3242L101.459 74.9844C99.8418 73.6072 97.9864 72.6031 96.005 72.0328C94.2244 71.3794 92.3641 71.024 90.4867 70.9786C88.27 70.9786 86.4947 71.4237 85.1608 72.3139C83.8386 73.2083 83.1775 74.3796 83.1775 75.8278C83.1775 77.4207 83.9883 78.7794 85.61 79.9039C87.2433 80.9857 90.0239 82.1805 93.9517 83.488C98.7 85.0342 102.079 87.0956 104.09 89.6725C106.101 92.2493 107.106 95.529 107.106 99.5114C107.106 103.587 105.673 107.101 102.807 110.053C99.9833 112.958 95.8767 114.481 90.4867 114.621C83.4283 114.621 77.525 112.302 72.7767 107.664L77.7817 100.074ZM45.5233 104.15C46.8922 105.087 48.5392 105.555 50.4642 105.555C52.4747 105.555 54.1431 104.923 55.4692 103.658C56.7914 102.346 57.4544 100.074 57.4583 96.8408V62.9669H66.1208V98.668C65.9925 104.197 64.5381 108.179 61.7575 110.615C60.236 112.024 58.4672 113.076 56.56 113.707C54.7914 114.297 52.9545 114.605 51.1058 114.621C47.8975 114.621 45.0528 114.012 42.5717 112.794C39.9194 111.486 37.695 109.167 35.8983 105.836L41.93 100.425C43.0383 102.065 44.2361 103.306 45.5233 104.15Z" fill="#CCCCCC"/>
</svg>
