<svg width="116" height="115" viewBox="0 0 116 115" fill="none" xmlns="http://www.w3.org/2000/svg">
<path d="M88.2977 43.1586C87.2148 43.0004 86.2852 42.5356 85.2023 42.229C85.3604 41.6108 85.3604 40.9927 85.6671 40.0631C87.8329 28.9369 86.29 20.1298 81.3402 17.0344C76.3952 14.2552 68.3548 17.1877 60.3192 24.1452C59.6963 24.7633 58.6181 25.3815 58 26.3063C57.5352 25.8463 56.9171 25.3815 56.4523 24.7633C47.9519 17.1925 39.6048 14.0971 34.3531 17.0344C29.4033 19.8136 27.8604 28.3188 30.0215 38.6736C30.1796 39.7565 30.4863 40.8394 30.6444 41.7642C29.5615 41.9223 28.3204 42.3871 27.2423 42.8471C17.1942 46.4025 10.0833 52.1238 10.0833 57.5336C10.0833 63.4033 17.6542 69.2779 28.0138 72.6752C28.9385 72.8333 29.7148 73.2981 30.6396 73.2981C30.4863 74.3811 30.0215 75.4592 30.0215 76.7002C28.009 86.9017 29.5615 95.0906 34.5065 97.8746C39.4515 100.965 48.1052 97.8746 56.1456 90.4571C56.7638 89.8342 57.3819 89.3742 58.1581 88.7561C58.9676 89.5528 59.8464 90.276 60.784 90.9171C68.5129 97.8746 76.5486 100.659 81.6517 97.8746C86.5967 94.784 88.2977 86.1254 86.1319 75.3058C85.9786 74.6877 85.9785 73.6096 85.509 72.68C86.1319 72.5267 86.5967 72.5267 87.2148 72.0571C98.0344 68.8179 105.917 62.9481 105.917 57.0688C105.763 52.2771 98.3458 46.714 88.2977 43.1586ZM62.9498 27.394C69.8977 21.3613 76.3952 19.2002 79.481 20.7431C82.5765 22.4442 83.8127 29.8617 81.805 39.6031C81.6517 40.2213 81.6517 40.6813 81.3402 41.6108C77.1667 40.6813 73.1465 39.9098 68.8196 39.5983C66.5004 36.2011 63.8746 32.6504 61.0906 29.8617C61.5548 28.9326 62.1831 28.095 62.945 27.3892M41.4544 67.4188C42.384 69.1198 43.4669 70.6675 44.5498 72.2104C41.6334 72.0481 38.7365 71.6345 35.8913 70.9742C36.6051 68.1338 37.6421 65.3847 38.9819 62.7804C39.6048 64.17 40.6829 66.0292 41.4544 67.4188ZM35.896 45.1615C38.7056 44.5297 41.5398 44.0134 44.3917 43.6138C43.3088 45.1615 42.3792 46.7092 41.6125 48.4054C40.8363 50.1065 39.9115 51.5008 38.9819 53.3552C37.5923 50.4179 36.8256 47.7873 35.896 45.1615ZM40.8315 57.9888C41.9144 55.3629 43.4621 53.0438 45.005 50.4179C46.5527 47.7873 48.0956 45.4681 49.49 42.9956C52.2692 42.8423 55.0531 42.8423 57.9904 42.8423C60.7696 42.8423 63.865 42.9956 66.4908 42.9956C68.1919 45.3148 69.5815 47.7873 70.9758 50.1065C72.5188 52.4256 73.755 55.0563 75.1446 57.6773C74.0665 60.3127 72.5188 62.6271 70.9758 65.2577C69.4281 67.8836 67.8804 70.2027 66.4908 72.6752C63.7117 72.8286 60.9277 72.8286 57.8371 72.8286C54.7465 72.8286 51.9625 72.6752 49.3367 72.6752C47.6356 70.3561 46.2413 67.8836 44.8517 65.2577C43.4621 62.6271 42.2258 60.6194 40.8315 57.9888ZM74.5313 67.4188C75.456 65.7177 76.2275 64.1748 77.1571 62.4738C78.24 65.0996 79.3229 67.8836 80.2477 70.6675C77.4685 71.2856 74.3731 71.7456 71.2873 72.2104C72.5188 70.6675 73.6017 68.9665 74.5313 67.4188ZM77.3104 53.1971C76.3856 51.5008 75.6094 49.9531 74.6846 48.2521C73.7598 46.5511 72.6721 45.1615 71.9054 43.7719C74.7572 44.1699 77.5914 44.6847 80.401 45.3148C79.4762 47.9454 78.3933 50.5713 77.3104 53.1971ZM58 32.3438C60.0125 34.5048 61.7088 36.6706 63.4098 38.9898C59.7026 38.836 55.9907 38.836 52.2835 38.9898C54.2913 36.5173 56.299 34.3515 58 32.3438ZM36.3608 20.8917C39.4515 19.1954 46.5623 21.5146 53.6731 28.314C54.1379 28.7788 54.5979 29.2388 55.216 29.5502C52.4369 32.6408 49.8063 36.0429 47.1804 39.2869C42.9717 39.7168 38.7913 40.3888 34.6598 41.2994C34.5065 40.3698 34.195 39.2869 34.0417 38.5154C32.3406 29.3969 33.4235 22.5927 36.3608 20.8917ZM32.0292 70.0542C31.4063 69.8961 30.4815 69.5894 29.71 69.4313C25.4 68.2634 21.3577 66.2699 17.8075 63.5615C15.6417 62.0138 14.5588 60.1594 14.0988 57.9936C14.0988 54.5915 20.1267 50.2694 28.6271 47.174C29.71 46.714 30.7929 46.5558 31.871 46.0958C33.1073 50.2646 34.655 54.1315 36.356 57.9936C34.8083 61.8604 33.1073 65.7225 32.0292 70.0542ZM53.515 88.1379C50.3906 90.9417 46.7743 93.143 42.8488 94.6306C41.8499 95.1497 40.7455 95.4334 39.6202 95.46C38.4948 95.4866 37.3783 95.2553 36.356 94.784C33.2654 93.0829 32.1825 86.5902 33.7254 77.6298C33.8835 76.5421 34.1902 75.464 34.3483 74.5344C38.5171 75.464 42.8488 76.0821 46.8642 76.2354C49.1833 79.6375 52.1206 83.1881 54.9046 86.2836C54.7513 87.2083 54.1283 87.6731 53.515 88.1379ZM58.1485 83.8111C56.136 81.6452 54.4398 79.4794 52.5854 77.1602C54.2865 77.1602 55.9875 77.3183 57.9952 77.3183C60.0029 77.3183 61.8573 77.3183 63.5583 77.1602C61.8621 79.1727 60.1563 81.3386 58.1485 83.8111ZM82.5717 89.2113C82.4183 91.3771 81.3354 93.6963 79.481 95.0858C76.3904 96.7869 70.2044 94.6258 63.405 88.5979C62.7869 87.975 61.8621 87.3569 61.0858 86.4321C63.9193 83.2886 66.5034 79.929 68.8148 76.384C73.1417 76.2306 77.3152 75.3011 81.3354 74.3715C81.4888 74.9944 81.4888 75.9192 81.8002 76.5373C82.8831 80.869 82.8831 85.1958 82.5717 89.2113ZM85.9738 69.2779C85.509 69.4313 84.8908 69.4313 84.2727 69.7379C83.0365 65.5644 81.1821 61.7023 79.481 57.8354C81.1821 54.1267 82.725 50.1065 83.9613 46.0911C85.0442 46.2444 85.9738 46.7092 86.7452 47.0158C95.399 50.1065 101.427 54.4333 101.427 57.8354C101.585 61.3908 95.2456 66.1825 85.9738 69.2731M58 66.3358C62.7917 66.3358 66.5004 62.4738 66.5004 57.8354C66.4792 55.588 65.5766 53.4387 63.9869 51.8499C62.3972 50.2611 60.2474 49.3598 58 49.3398C53.5198 49.3398 49.4996 53.2019 49.4996 57.8402C49.4996 62.4786 53.2083 66.3406 58 66.3406" fill="#CCCCCC"/>
</svg>
