<svg width="34" height="34" viewBox="0 0 34 34" fill="none" xmlns="http://www.w3.org/2000/svg">
<mask id="mask0_33_6" style="mask-type:luminance" maskUnits="userSpaceOnUse" x="0" y="1" width="34" height="32">
<path d="M12.9512 30.5795C10.6081 29.8797 8.48605 28.5854 6.79149 26.8225C7.33667 26.1758 7.67653 25.3813 7.76756 24.5404C7.8586 23.6995 7.69667 22.8506 7.30251 22.1023C6.90834 21.354 6.29987 20.7403 5.55494 20.3397C4.81001 19.9392 3.96252 19.77 3.1209 19.8539C2.92874 18.9148 2.83238 17.9586 2.83332 17C2.83332 15.5196 3.05999 14.0916 3.48215 12.75H3.54165C4.26398 12.7502 4.97445 12.5664 5.60597 12.2157C6.2375 11.8651 6.76924 11.3593 7.15099 10.7461C7.53273 10.1329 7.75189 9.43252 7.78777 8.71109C7.82365 7.98965 7.67505 7.27097 7.35603 6.62292C9.0173 5.07722 11.0256 3.9532 13.2118 3.34546C13.5677 4.04416 14.1099 4.6308 14.7784 5.04047C15.447 5.45013 16.2159 5.66686 17 5.66667C17.7841 5.66686 18.553 5.45013 19.2215 5.04047C19.8901 4.6308 20.4323 4.04416 20.7881 3.34546C22.9744 3.9532 24.9827 5.07722 26.6439 6.62292C26.3226 7.27551 26.1741 7.99967 26.2127 8.72607C26.2513 9.45247 26.4758 10.1568 26.8645 10.7716C27.2532 11.3865 27.7933 11.8913 28.4329 12.2377C29.0726 12.584 29.7905 12.7605 30.5178 12.75C30.949 14.1254 31.1678 15.5586 31.1666 17C31.1666 17.9775 31.0675 18.9323 30.8791 19.8546C30.0374 19.7707 29.19 19.9399 28.445 20.3404C27.7001 20.741 27.0916 21.3547 26.6975 22.103C26.3033 22.8513 26.1414 23.7002 26.2324 24.5411C26.3234 25.382 26.6633 26.1765 27.2085 26.8232C25.5138 28.5859 23.3918 29.8799 21.0488 30.5795C20.7737 29.7219 20.2333 28.9738 19.5057 28.4431C18.778 27.9124 17.9006 27.6264 17 27.6264C16.0993 27.6264 15.222 27.9124 14.4943 28.4431C13.7666 28.9738 13.2263 29.7219 12.9512 30.5795Z" fill="white" stroke="white" stroke-width="4" stroke-linejoin="round"/>
<path d="M17 21.9584C17.6511 21.9584 18.2959 21.8302 18.8974 21.581C19.499 21.3318 20.0456 20.9666 20.506 20.5062C20.9665 20.0457 21.3317 19.4991 21.5809 18.8976C21.83 18.296 21.9583 17.6512 21.9583 17.0001C21.9583 16.3489 21.83 15.7042 21.5809 15.1026C21.3317 14.501 20.9665 13.9544 20.506 13.494C20.0456 13.0336 19.499 12.6684 18.8974 12.4192C18.2959 12.17 17.6511 12.0417 17 12.0417C15.6849 12.0417 14.4238 12.5641 13.4939 13.494C12.564 14.4239 12.0416 15.685 12.0416 17.0001C12.0416 18.3151 12.564 19.5763 13.4939 20.5062C14.4238 21.436 15.6849 21.9584 17 21.9584Z" fill="black" stroke="black" stroke-width="4" stroke-linejoin="round"/>
</mask>
<g mask="url(#mask0_33_6)">
<path d="M0 0H34V34H0V0Z" fill="#CCCCCC"/>
</g>
</svg>
