<svg width="34" height="34" viewBox="0 0 34 34" fill="none" xmlns="http://www.w3.org/2000/svg">
<path d="M18.9975 17.0098C18.9975 21.8973 15.0606 25.8597 10.2071 25.8597C5.35357 25.8597 1.41666 21.8987 1.41666 17.0098C1.41666 12.1209 5.35216 8.15991 10.2071 8.15991C15.062 8.15991 18.9975 12.1223 18.9975 17.0098ZM28.6379 17.0098C28.6379 21.6112 26.6687 25.3398 24.2434 25.3398C21.8152 25.3398 19.8475 21.6097 19.8475 17.0098C19.8475 12.4099 21.8167 8.67983 24.2434 8.67983C26.6702 8.67983 28.6379 12.4099 28.6379 17.0098ZM32.5819 17.0098C32.5819 21.1323 31.8892 24.4742 31.0363 24.4742C30.1821 24.4742 29.4907 21.1309 29.4907 17.0098C29.4907 12.8887 30.1821 9.54541 31.0363 9.54541C31.8906 9.54541 32.5833 12.8887 32.5833 17.0112" fill="#CCCCCC"/>
</svg>
