<svg width="29" height="29" viewBox="0 0 29 29" fill="none" xmlns="http://www.w3.org/2000/svg">
<path d="M14.667 2.6958C21.4631 2.6958 26.972 8.20475 26.972 15.0008C26.972 21.7968 21.4631 27.3058 14.667 27.3058C12.4924 27.3095 10.3561 26.734 8.4776 25.6385L2.36694 27.3058L4.03058 21.1927C2.93415 19.3136 2.35821 17.1763 2.36202 15.0008C2.36202 8.20475 7.87096 2.6958 14.667 2.6958ZM10.4735 9.21745L10.2274 9.22729C10.0683 9.23825 9.91279 9.28005 9.76962 9.35034C9.63621 9.42603 9.51437 9.52051 9.40786 9.63089C9.2602 9.76994 9.17652 9.89053 9.0867 10.0074C8.63156 10.5992 8.38651 11.3257 8.39023 12.0722C8.39269 12.6751 8.5502 13.2621 8.7963 13.8109C9.29957 14.9208 10.1277 16.0959 11.2204 17.1849C11.4837 17.447 11.7421 17.7104 12.0202 17.9552C13.378 19.1505 14.9959 20.0126 16.7453 20.4728L17.4442 20.5799C17.6719 20.5922 17.8995 20.575 18.1284 20.5639C18.4867 20.545 18.8365 20.448 19.1534 20.2796C19.3144 20.1964 19.4717 20.1061 19.6247 20.0089C19.6247 20.0089 19.6768 19.9736 19.7785 19.8982C19.9446 19.7751 20.0468 19.6878 20.1846 19.5438C20.2879 19.4372 20.3741 19.3133 20.443 19.1722C20.539 18.9716 20.6349 18.5889 20.6743 18.2702C20.7038 18.0266 20.6952 17.8937 20.6915 17.8113C20.6866 17.6796 20.5771 17.543 20.4577 17.4852L19.7416 17.164C19.7416 17.164 18.6711 16.6977 18.0164 16.3999C17.9479 16.37 17.8745 16.3529 17.7999 16.3494C17.7157 16.3406 17.6306 16.35 17.5503 16.377C17.47 16.4039 17.3965 16.4478 17.3347 16.5057C17.3286 16.5032 17.2461 16.5734 16.3565 17.6513C16.3054 17.7199 16.2351 17.7718 16.1544 17.8002C16.0738 17.8287 15.9865 17.8326 15.9037 17.8113C15.8235 17.7899 15.7449 17.7627 15.6686 17.73C15.5161 17.6661 15.4631 17.6414 15.3586 17.5971C14.6521 17.2894 13.9982 16.873 13.4205 16.363C13.2655 16.2276 13.1215 16.0799 12.9738 15.9372C12.4898 15.4736 12.0679 14.9491 11.7187 14.3769L11.6461 14.26C11.5948 14.181 11.5527 14.0964 11.5206 14.0078C11.4739 13.8269 11.5957 13.6817 11.5957 13.6817C11.5957 13.6817 11.8947 13.3544 12.0337 13.1772C12.1691 13.0049 12.2835 12.8376 12.3574 12.7182C12.5026 12.4844 12.5481 12.2445 12.4718 12.0587C12.1273 11.217 11.7712 10.3799 11.4037 9.54722C11.3311 9.38233 11.1158 9.2642 10.9201 9.24083C10.8537 9.23262 10.7872 9.22606 10.7208 9.22114C10.5556 9.21166 10.3899 9.21331 10.2249 9.22606L10.4735 9.21745Z" fill="#D4CED7"/>
</svg>
