<svg width="32" height="32" viewBox="0 0 32 32" fill="none" xmlns="http://www.w3.org/2000/svg">
<g clip-path="url(#clip0_34_13)">
<path d="M14.5778 13.689H17.4222V18.3112H14.5778V13.689Z" fill="#CCCCCC"/>
<path d="M18.6667 18.6667C18.6667 18.9024 18.573 19.1285 18.4063 19.2952C18.2396 19.4619 18.0135 19.5556 17.7778 19.5556H14.2222C13.9865 19.5556 13.7604 19.4619 13.5937 19.2952C13.427 19.1285 13.3333 18.9024 13.3333 18.6667V16.8889H1.77777V24.8889C1.77777 25.3604 1.96507 25.8126 2.29847 26.146C2.63187 26.4794 3.08405 26.6667 3.55555 26.6667H28.4444C28.9159 26.6667 29.3681 26.4794 29.7015 26.146C30.0349 25.8126 30.2222 25.3604 30.2222 24.8889V16.8889H18.6667V18.6667Z" fill="#CCCCCC"/>
<path d="M29.9645 11.0046L26.3289 7.369C26.1633 7.20478 25.9399 7.1122 25.7067 7.11122H21.2622V5.37789C21.2743 4.91082 21.102 4.45779 20.7826 4.11678C20.4632 3.77577 20.0224 3.5742 19.5556 3.55566H12.3022C12.0741 3.56464 11.8501 3.6193 11.6434 3.71641C11.4368 3.81353 11.2517 3.95111 11.0992 4.12102C10.9467 4.29094 10.8299 4.48972 10.7556 4.70561C10.6813 4.9215 10.651 5.15011 10.6667 5.37789V7.11122H6.29334C6.17636 7.11054 6.06039 7.13297 5.95209 7.1772C5.84379 7.22144 5.74529 7.28661 5.66223 7.369L2.03556 11.0046C1.95318 11.0876 1.888 11.1861 1.84377 11.2944C1.79953 11.4027 1.77711 11.5187 1.77779 11.6357V15.1112H13.3333V13.3334C13.3333 13.0977 13.427 12.8716 13.5937 12.7049C13.7604 12.5382 13.9865 12.4446 14.2222 12.4446H17.7778C18.0135 12.4446 18.2396 12.5382 18.4063 12.7049C18.573 12.8716 18.6667 13.0977 18.6667 13.3334V15.1112H30.2222V11.6268C30.2212 11.3936 30.1287 11.1701 29.9645 11.0046ZM19.5556 7.11122H12.4445V5.33344H19.5556V7.11122Z" fill="#CCCCCC"/>
</g>
<defs>
<clipPath id="clip0_34_13">
<rect width="32" height="32" fill="white"/>
</clipPath>
</defs>
</svg>
