<svg width="116" height="115" viewBox="0 0 116 115" fill="none" xmlns="http://www.w3.org/2000/svg">
<path d="M58 28.75C45.2062 28.75 37.2521 35.1229 34.0417 47.9167C38.8333 41.5437 44.4396 39.1479 50.8125 40.7292C54.4542 41.6396 57.0896 44.275 59.9646 47.1979C64.6604 51.9896 69.9792 57.5 81.9583 57.5C94.7521 57.5 102.706 51.1271 105.917 38.3333C101.125 44.7062 95.5188 47.1021 89.1458 45.5208C85.5042 44.6104 82.9167 41.975 79.9938 39.0521C75.2979 34.2604 69.9792 28.75 58 28.75ZM34.0417 57.5C21.2479 57.5 13.2937 63.8729 10.0833 76.6667C14.875 70.2937 20.4812 67.8979 26.8542 69.4792C30.4958 70.3896 33.0833 73.025 36.0062 75.9479C40.7021 80.7396 46.0208 86.25 58 86.25C70.7938 86.25 78.7479 79.8771 81.9583 67.0833C77.1667 73.4562 71.5604 75.8521 65.1875 74.2708C61.5458 73.3604 58.9583 70.725 56.0354 67.8021C51.3396 63.0104 46.0208 57.5 34.0417 57.5Z" fill="#CCCCCC"/>
</svg>
