<svg width="30" height="30" viewBox="0 0 30 30" fill="none" xmlns="http://www.w3.org/2000/svg">
<path d="M29.5638 27.4339L27.434 29.5638C27.153 29.8432 26.7728 30 26.3766 30C25.9803 30 25.6002 29.8432 25.3192 29.5638L7.50059 11.7745C7.01289 11.916 6.50846 11.9917 6.00071 11.9995C5.04574 11.9988 4.10473 11.7702 3.25592 11.3326C2.4071 10.895 1.675 10.2611 1.12049 9.48357C0.565983 8.70605 0.205082 7.80739 0.0677934 6.8623C-0.0694948 5.91721 0.0207974 4.953 0.331163 4.04984L4.14086 7.85969L4.9358 7.06472L7.06563 4.9348L7.86056 4.13984L4.05087 0.329987C4.954 0.0196091 5.91817 -0.0706866 6.86322 0.066607C7.80827 0.203901 8.70689 0.564817 9.48438 1.11935C10.2619 1.67388 10.8958 2.40601 11.3333 3.25486C11.7709 4.10371 11.9996 5.04475 12.0002 5.99976C11.9924 6.50753 11.9167 7.01198 11.7753 7.4997L29.5638 25.319C29.8432 25.6 30 25.9802 30 26.3765C30 26.7727 29.8432 27.1529 29.5638 27.4339ZM0.436154 25.319C0.1568 25.6 0 25.9802 0 26.3765C0 26.7727 0.1568 27.1529 0.436154 27.4339L2.56599 29.5638C2.84701 29.8432 3.22715 30 3.6234 30C4.01965 30 4.3998 29.8432 4.68082 29.5638L12.8852 21.3742L8.6405 17.1293M26.999 0L20.9995 2.99988V5.99976L17.7448 9.25463L20.7445 12.2545L23.9993 8.99964H26.999L29.9988 2.99988L26.999 0Z" fill="#CCCCCC"/>
</svg>
